<svg xmlns="http://www.w3.org/2000/svg" enable-background="new 0 0 64 64" viewBox="0 0 64 64" id="quiz-test"><linearGradient id="a" x1="-2.325" x2="48.592" y1="58.775" y2="7.858" gradientUnits="userSpaceOnUse"><stop offset="0" stop-color="#be53ff"></stop><stop offset="1" stop-color="#6be2dd"></stop></linearGradient><path fill="url(#a)" d="M14.7,48.3H7c-0.6,0-1,0.4-1,1V57c0,0.6,0.4,1,1,1h7.7c0.6,0,1-0.4,1-1v-7.7C15.7,48.8,15.2,48.3,14.7,48.3z M13.7,56H8v-5.7h5.7V56z M14.7,32.3H7c-0.6,0-1,0.4-1,1V41c0,0.6,0.4,1,1,1h7.7c0.6,0,1-0.4,1-1v-7.7C15.7,32.7,15.2,32.3,14.7,32.3z M13.7,40H8v-5.7h5.7V40z M14.7,16.2H7c-0.6,0-1,0.4-1,1v7.7c0,0.6,0.4,1,1,1h7.7c0.6,0,1-0.4,1-1v-7.7C15.7,16.7,15.2,16.2,14.7,16.2z M13.7,23.9H8v-5.7h5.7V23.9z M19.7,18.4c0,0.6,0.4,1,1,1h11c0.6,0,1-0.4,1-1s-0.4-1-1-1h-11C20.1,17.4,19.7,17.9,19.7,18.4z M19.7,23.7c0,0.6,0.4,1,1,1h21.2c0.6,0,1-0.4,1-1s-0.4-1-1-1H20.7C20.1,22.7,19.7,23.1,19.7,23.7z M31.7,33.5h-11c-0.6,0-1,0.4-1,1s0.4,1,1,1h11c0.6,0,1-0.4,1-1S32.2,33.5,31.7,33.5z M20.7,51.5h11c0.6,0,1-0.4,1-1s-0.4-1-1-1h-11c-0.6,0-1,0.4-1,1S20.1,51.5,20.7,51.5z M7,10.1h16.3c0.6,0,1-0.4,1-1s-0.4-1-1-1H7c-0.6,0-1,0.4-1,1S6.4,10.1,7,10.1z M63.1,22.4l-4-3.2c-1-0.8-2.4-0.6-3.2,0.4l-7,8.9V12.9c0-0.3-0.1-0.5-0.3-0.7L36.7,0.3C36.5,0.1,36.2,0,36,0H5C2.2,0,0,2.2,0,5v54c0,2.8,2.2,5,5,5h38.9c2.8,0,5-2.2,5-5V44.2l14.6-18.6c0.4-0.5,0.5-1.1,0.5-1.7S63.6,22.8,63.1,22.4z M37,3.4l8.5,8.5H38c-0.6,0-1-0.4-1-1V3.4z M46.9,59c0,1.7-1.3,3-3,3H5c-1.7,0-3-1.3-3-3V5c0-1.7,1.3-3,3-3h30v8.9c0,1.7,1.3,3,3,3h8.9V31l-6.1,7.7H20.7c-0.6,0-1,0.4-1,1s0.4,1,1,1h18.6l-3.8,4.8l0,0c-0.1,0.1-0.1,0.2-0.2,0.3l0,0l-2.5,8.9H20.7c-0.6,0-1,0.4-1,1s0.4,1,1,1h21.2c0.6,0,1-0.4,1-1s-0.4-1-1-1h-4.5l5.3-3l0,0c0.1-0.1,0.2-0.1,0.2-0.2l0,0l3.8-4.8L46.9,59L46.9,59z M36.8,47.9l3.7,2.9l-5.3,3L36.8,47.9z M42.1,49.5L37.6,46l13.9-17.6c0.1,0.1,4.8,3.8,4.5,3.5L42.1,49.5z M57.3,30.3l-4.5-3.5l1.1-1.4l4.5,3.5L57.3,30.3z M61.9,24.4l-2.3,3l-4.5-3.5l2.3-3c0.1-0.1,0.3-0.1,0.4,0l4,3.2c0.2-0.1,0.2,0,0.2,0.1S62,24.3,61.9,24.4z"></path></svg>